<svg width="16" height="264" viewBox="0 0 16 264" fill="none" xmlns="http://www.w3.org/2000/svg">
<path d="M9 1C9 0.447715 8.55228 0 8 0C7.44772 0 7 0.447715 7 1H9ZM7.29289 263.207C7.68342 263.598 8.31658 263.598 8.70711 263.207L15.0711 256.843C15.4616 256.453 15.4616 255.819 15.0711 255.429C14.6805 255.038 14.0474 255.038 13.6569 255.429L8 261.086L2.34315 255.429C1.95262 255.038 1.31946 255.038 0.928932 255.429C0.538408 255.819 0.538408 256.453 0.928932 256.843L7.29289 263.207ZM7 1V262.5H9V1H7Z" fill="black"/>
</svg>
