<svg width="337" height="337" viewBox="0 0 337 337" fill="none" xmlns="http://www.w3.org/2000/svg">
<circle cx="168.5" cy="168.5" r="167.5" fill="white" stroke="black" stroke-width="2"/>
<path d="M157.236 199.398L143.653 195.758L151.223 167.505L124.736 160.407L117.165 188.661L103.582 185.021L121.246 119.096L134.83 122.736L127.672 149.45L154.159 156.547L161.317 129.833L174.9 133.473L157.236 199.398ZM225.204 194.073C222.79 201.029 218.668 205.91 212.837 208.715C207.036 211.528 200.272 211.9 192.545 209.829C184.093 207.564 178.197 202.944 174.858 195.967C171.557 188.967 171.237 180.502 173.898 170.572L174.978 166.542C176.676 160.203 179.29 154.918 182.817 150.687C186.345 146.456 190.521 143.611 195.343 142.154C200.205 140.674 205.382 140.67 210.876 142.142C218.482 144.18 224.064 147.86 227.621 153.18C231.177 158.501 232.331 164.941 231.082 172.5L217.499 168.86C218.307 164.515 217.94 161.117 216.397 158.665C214.892 156.191 212.057 154.397 207.891 153.28C203.363 152.067 199.531 152.787 196.393 155.441C193.294 158.072 190.801 162.79 188.912 169.596L187.578 174.577C185.669 181.7 185.345 187.194 186.607 191.059C187.899 194.931 190.869 197.49 195.517 198.736C199.713 199.86 203.092 199.747 205.654 198.395C208.254 197.021 210.243 194.367 211.621 190.434L225.204 194.073Z" fill="black"/>
<path d="M91.9848 44.2219L92.5093 43.9376C94.7384 42.7294 94.4427 40.6503 92.7959 37.2678L91.0058 33.5897L94.7035 31.5854L99.3802 40.2133L100.927 39.3747L95.469 29.3043L88.7554 32.9433L90.9884 37.5011C92.691 40.9551 92.7765 41.9267 91.5701 42.5806L91.203 42.7796L91.9848 44.2219Z" fill="black"/>
<path d="M103.498 35.2316L99.8956 27.1379L98.2878 27.8536L102.946 38.3182L104.826 37.4812L106.238 27.1554L109.841 35.2492L111.448 34.5335L106.79 24.0688L104.937 24.8937L103.498 35.2316Z" fill="black"/>
<path d="M117.843 19.9586L116.186 20.5521L118.145 26.0212C117.428 26.5395 116.657 26.9741 115.667 27.3287C114.319 27.8115 113.008 27.4254 112.415 25.7686L111.178 22.3144L109.521 22.9079L110.758 26.362C111.703 29.0018 113.777 29.7483 116.22 28.8732C117.238 28.5086 118.005 28.0835 118.701 27.5727L120.049 31.3358L121.706 30.7423L117.843 19.9586Z" fill="black"/>
<path d="M121.812 18.7243L120.117 19.1975L123.196 30.2302L124.892 29.757L123.576 25.0451L128.863 23.5694L130.178 28.2813L131.873 27.8081L128.793 16.7753L127.098 17.2485L128.422 21.9892L123.135 23.4649L121.812 18.7243Z" fill="black"/>
<path d="M134.558 19.664L133.796 15.5882L132.066 15.9114L134.17 27.1712L138.89 26.2894C141.529 25.7965 142.665 23.9154 142.287 21.8922C141.904 19.8396 140.188 18.6125 137.549 19.1054L134.558 19.664ZM144.755 25.1941L146.485 24.8709L144.382 13.6111L142.652 13.9342L144.755 25.1941ZM134.859 21.2768L137.85 20.7181C139.221 20.4621 140.352 21.1157 140.574 22.3033C140.786 23.4395 139.96 24.4206 138.589 24.6767L135.598 25.2353L134.859 21.2768Z" fill="black"/>
<path d="M149.025 21.9987L148.138 13.1838L146.387 13.36L147.533 24.757L149.581 24.551L154.156 15.1868L155.042 24.0017L156.794 23.8256L155.647 12.4286L153.629 12.6316L149.025 21.9987ZM152.089 8.94897C152.167 9.72065 151.82 10.4451 150.781 10.5496C149.742 10.654 149.288 10.0102 149.21 9.23855L147.578 9.40274C147.739 11.0054 149.04 12.0139 150.91 11.8258C152.809 11.6347 153.883 10.3875 153.722 8.78478L152.089 8.94897Z" fill="black"/>
<path d="M164.053 23.4665L165.813 23.4733L165.832 18.6409L167.413 18.647L171.153 23.4939L173.42 23.5027L168.759 17.5485L173.404 12.048L171.137 12.0392L167.002 17.0048L165.838 17.0003L165.857 12.0188L164.097 12.012L164.053 23.4665Z" fill="black"/>
<path d="M177.604 24.0703C179.597 24.2166 180.717 23.2221 181.129 22.5046L181.218 22.5111L181.104 24.0581L182.86 24.187L183.412 16.6604C183.679 13.0309 180.943 12.4113 179.485 12.3043C177.759 12.1776 175.752 12.6284 174.707 14.6453L176.329 15.3627C176.777 14.5581 177.757 13.7327 179.431 13.8556C181.045 13.9741 181.778 14.8878 181.67 16.353L181.666 16.4125C181.604 17.2604 180.746 17.1226 178.644 17.2375C176.504 17.357 174.157 17.6558 173.965 20.2737C173.801 22.5049 175.432 23.9108 177.604 24.0703ZM177.988 22.5132C176.589 22.4106 175.624 21.7116 175.713 20.4918C175.812 19.1531 177.062 18.8262 178.444 18.7482C179.194 18.7135 181.202 18.6516 181.526 18.3165L181.408 19.9229C181.303 21.3509 180.07 22.6661 177.988 22.5132Z" fill="black"/>
<path d="M195.037 9.96698C194.415 10.3502 193.589 10.2284 192.431 10.0503C192.055 9.99483 191.642 9.93393 191.19 9.88234C187.724 9.46192 185.625 11.8361 184.881 16.8824L184.703 18.0923C184.085 22.2828 185.8 24.7668 188.839 25.2148C191.871 25.6618 194.21 23.7601 194.734 20.2041C195.26 16.6333 193.495 14.4434 190.846 14.053C189.29 13.8235 187.741 14.2585 186.764 15.5619L186.617 15.5402C187.284 12.6534 188.606 11.2503 190.98 11.5098C193.088 11.7301 194.585 12.011 195.765 11.1599L195.037 9.96698ZM189.07 23.6508C187.004 23.3463 185.979 21.5066 186.353 18.9687C186.755 16.4952 188.211 15.2625 190.232 15.5605C192.305 15.8661 193.358 17.4686 192.993 19.9475C192.616 22.5001 191.121 23.9531 189.07 23.6508Z" fill="black"/>
<path d="M197.501 23.7839L199.459 15.1436L197.742 14.7547L195.211 25.926L197.218 26.3809L204.529 18.9534L202.571 27.5937L204.288 27.9826L206.819 16.8113L204.841 16.363L197.501 23.7839Z" fill="black"/>
<path d="M211.699 18.1443L210.017 17.6264L206.646 28.5737L208.328 29.0916L209.767 24.4162L215.013 26.0315L213.573 30.7069L215.255 31.2248L218.626 20.2775L216.944 19.7596L215.496 24.4635L210.25 22.8482L211.699 18.1443Z" fill="black"/>
<path d="M220.938 33.6072C223.107 34.4491 225.113 33.9797 226.239 32.5611L224.827 31.501C223.978 32.4514 222.796 32.6325 221.51 32.1334C219.584 31.386 218.739 29.6262 219.551 27.3092L227.302 30.3177L227.572 29.6225C229.115 25.6459 227.28 23.3659 225.056 22.5025C222.164 21.38 219.36 22.9156 218.086 26.197C216.813 29.4784 217.851 32.4092 220.938 33.6072ZM220.101 25.891C220.857 24.2726 222.607 23.2478 224.484 23.9763C226.264 24.6671 226.886 26.4444 226.184 28.2519L220.101 25.891Z" fill="black"/>
<path d="M230.55 26.6131L233.975 28.2306L229.785 37.105L231.377 37.8564L235.567 28.982L238.966 30.5867L239.666 29.1031L231.25 25.1295L230.55 26.6131Z" fill="black"/>
</svg>
