<svg width="315" height="313" viewBox="0 0 315 313" fill="none" xmlns="http://www.w3.org/2000/svg">
<path d="M308.613 185.736C292.519 269.75 211.366 324.81 127.353 308.716C43.3388 292.622 -11.7211 211.469 4.37277 127.456C20.4666 43.4419 101.62 -11.618 185.633 4.47579C269.647 20.5696 324.707 101.723 308.613 185.736Z" fill="white" stroke="black" stroke-width="2"/>
<path d="M209.802 31.7184C212.137 32.7073 214.28 31.9305 215.346 30.1791L213.725 29.4927C212.935 30.5183 211.682 30.7978 210.419 30.2626C208.496 29.4483 207.935 27.3316 208.97 24.887C209.983 22.4974 211.909 21.4669 213.804 22.2697C215.233 22.8746 215.712 24.1143 215.552 25.1803L217.172 25.8667C217.735 23.7727 216.618 21.7446 214.394 20.8023C211.537 19.5923 208.688 21.0419 207.327 24.2556C205.989 27.4143 206.836 30.4619 209.802 31.7184Z" fill="black"/>
<path d="M220.916 34.0858L221.69 24.23L219.635 23.1391L214.264 33.2567L215.819 34.0818L220.004 26.1972L219.165 35.858L220.43 36.5293L227.884 30.5658L223.776 38.3054L225.33 39.1306L230.701 29.013L228.698 27.9501L220.916 34.0858Z" fill="black"/>
<path d="M230.542 42.7726C233.134 44.4778 236.173 43.6568 238.124 40.6914C240.092 37.7011 239.643 34.5847 237.051 32.8796C234.46 31.1744 231.42 31.9953 229.452 34.9857C227.501 37.9511 227.95 41.0674 230.542 42.7726ZM231.411 41.4519C229.442 40.1566 229.66 37.8718 230.923 35.953C232.185 34.0342 234.214 32.905 236.182 34.2003C238.151 35.4956 237.917 37.8052 236.654 39.724C235.392 41.6429 233.38 42.7471 231.411 41.4519Z" fill="black"/>
<path d="M241.997 38.3551L244.989 40.678L238.972 48.4304L240.362 49.5096L246.38 41.7572L249.349 44.0618L250.355 42.7658L243.003 37.0591L241.997 38.3551Z" fill="black"/>
<path d="M241.172 55.5739L242.475 56.7574L246.547 52.2758L246.657 52.3761C246.523 53.1005 246.152 54.6175 247.786 56.102C249.905 58.0277 252.929 57.6718 255.376 54.9784C257.804 52.3071 257.869 49.2631 255.728 47.3173C254.072 45.8128 252.641 46.367 251.953 46.5477L251.799 46.4073L253.022 45.0606L251.764 43.9172L241.172 55.5739ZM249.193 49.3195C250.918 47.4208 252.92 46.9026 254.51 48.347C256.166 49.8515 255.719 51.9845 254.094 53.7728C252.449 55.5831 250.306 56.2558 248.673 54.7714C247.105 53.3471 247.448 51.2402 249.193 49.3195Z" fill="black"/>
<path d="M255.672 63.8943C257.263 65.5925 259.274 66.0383 260.904 65.2476L260.09 63.6803C258.913 64.1693 257.769 63.8205 256.826 62.8136C255.414 61.3058 255.415 59.3537 257.15 57.6168L262.833 63.6858L263.378 63.176C266.491 60.2602 265.825 57.4104 264.194 55.6686C262.073 53.4043 258.881 53.574 256.312 55.9801C253.742 58.3862 253.409 61.4775 255.672 63.8943ZM258.26 56.5769C259.642 55.4456 261.663 55.2797 263.04 56.7493C264.345 58.1428 264.136 60.0142 262.72 61.3395L258.26 56.5769Z" fill="black"/>
<path d="M266.864 61.1999L269.246 64.1463L261.613 70.3152L262.719 71.684L270.352 65.5151L272.714 68.4382L273.99 67.4069L268.14 60.1687L266.864 61.1999Z" fill="black"/>
<path d="M272.55 72.4984L275.956 70.1332L274.952 68.6877L265.544 75.2217L268.283 79.1663C269.814 81.3713 271.996 81.636 273.686 80.4619C275.401 79.2708 275.817 77.2025 274.286 74.9974L272.55 72.4984ZM271.202 73.4343L272.938 75.9333C273.734 77.0787 273.601 78.3783 272.609 79.0674C271.659 79.7268 270.426 79.3758 269.631 78.2304L267.895 75.7314L271.202 73.4343Z" fill="black"/>
<path d="M273.848 87.7373L274.688 89.2835L283.31 84.596L285.932 89.4181L277.31 94.1055L278.151 95.6518L288.214 90.1806L283.911 82.2661L273.848 87.7373Z" fill="black"/>
<path d="M280.503 101.345C281.762 104.18 284.763 105.133 288.007 103.693C291.279 102.241 292.586 99.3765 291.328 96.541C290.069 93.7054 287.068 92.7528 283.796 94.2048C280.552 95.6448 279.245 98.5093 280.503 101.345ZM281.949 100.704C280.993 98.5496 282.411 96.7452 284.51 95.8135C286.61 94.8818 288.927 95.0284 289.883 97.1823C290.839 99.3362 289.393 101.153 287.293 102.084C285.194 103.016 282.904 102.857 281.949 100.704Z" fill="black"/>
<path d="M285.93 105.909C284.179 106.593 283.571 108.716 284.385 111.014C285.222 113.376 287.095 114.643 289.064 113.945C290.413 113.467 291.223 112.27 290.876 111.024L290.989 110.984C291.669 111.898 292.688 112.407 293.904 111.976C295.612 111.371 296.394 109.448 295.587 107.17C294.79 104.921 292.985 103.757 291.222 104.319L291.839 106.062C292.75 105.795 293.706 106.508 294.155 107.773C294.601 109.031 294.213 109.968 293.25 110.309C292.35 110.628 291.456 110.249 290.988 108.927L290.33 107.071L288.84 107.6L289.498 109.455C289.966 110.777 289.541 111.877 288.466 112.258C287.236 112.694 286.336 111.786 285.865 110.458C285.405 109.158 285.609 108.104 286.558 107.68L285.93 105.909Z" fill="black"/>
<path d="M286.366 115.35L286.886 117.403L292.617 119.982L292.836 120.849L288.065 122.058L288.498 123.764L293.269 122.556L293.488 123.423L289.67 128.391L290.19 130.444L294.693 124.533L301.279 127.573L300.766 125.549L295.086 123.049L294.859 122.153L299.601 120.951L299.169 119.245L294.427 120.447L294.192 119.521L297.997 114.618L297.484 112.594L293.147 118.432L286.366 115.35Z" fill="black"/>
<path d="M290.794 136.549C291.144 138.849 292.55 140.355 294.341 140.626L294.557 138.873C293.31 138.61 292.565 137.675 292.357 136.311C292.047 134.269 293.152 132.66 295.566 132.21L296.816 140.431L297.553 140.319C301.77 139.677 302.834 136.951 302.475 134.592C302.009 131.525 299.281 129.858 295.801 130.387C292.321 130.916 290.297 133.276 290.794 136.549ZM297.07 131.982C298.85 131.832 300.609 132.839 300.912 134.829C301.199 136.717 299.968 138.141 298.051 138.433L297.07 131.982Z" fill="black"/>
<path d="M152.757 161.907L172.805 57.2549" stroke="black" stroke-width="2" stroke-linecap="round"/>
<path d="M152.758 161.907L212.295 249.659" stroke="black" stroke-width="2" stroke-linecap="round"/>
</svg>
