<svg width="464" height="358" viewBox="0 0 464 358" fill="none" xmlns="http://www.w3.org/2000/svg">
<path d="M103.43 166.157L103.423 166.127L103.414 166.098C94.9967 139.297 98.5303 109.357 114.097 84.385C142.625 38.6188 201.814 24.03 246.245 51.7264C272.673 68.2005 287.967 95.9327 290.021 125.347C290.219 128.179 293.17 130.019 295.8 128.949C323.114 117.842 354.751 119.364 381.183 135.841C425.614 163.537 438.578 223.103 410.049 268.869C397.046 289.729 377.668 304.098 356.224 310.952L152.762 356.4C151.702 356.637 150.647 355.985 150.385 354.931L103.43 166.157Z" fill="white" stroke="black" stroke-width="2"/>
<path d="M223.155 330.968C226.18 330.28 227.693 327.519 226.906 324.058C226.113 320.568 223.554 318.733 220.529 319.42C217.504 320.108 215.99 322.869 216.784 326.359C217.571 329.821 220.129 331.656 223.155 330.968ZM222.804 329.426C220.506 329.949 219.009 328.209 218.5 325.969C217.991 323.729 218.582 321.484 220.88 320.962C223.178 320.44 224.681 322.209 225.19 324.448C225.699 326.688 225.102 328.904 222.804 329.426ZM236.679 315.902L234.963 316.292L237.139 325.862L231.787 327.078L229.611 317.509L227.895 317.899L230.434 329.068L239.073 327.104L239.893 330.711L241.609 330.321L240.426 325.114L238.855 325.471L236.679 315.902ZM247.701 325.388C249.969 324.872 251.37 323.361 251.51 321.554L249.746 321.466C249.574 322.729 248.695 323.54 247.35 323.846C245.336 324.304 243.651 323.318 243.027 320.944L251.135 319.1L250.97 318.373C250.024 314.214 247.228 313.351 244.901 313.88C241.876 314.567 240.411 317.409 241.191 320.841C241.972 324.273 244.472 326.122 247.701 325.388ZM242.69 319.46C242.411 317.696 243.288 315.868 245.251 315.421C247.113 314.998 248.623 316.123 249.053 318.014L242.69 319.46ZM253.712 312.029L251.996 312.42L254.535 323.589L256.251 323.199L255.167 318.429L260.519 317.212L261.603 321.982L263.319 321.592L260.78 310.423L259.064 310.813L260.155 315.612L254.803 316.829L253.712 312.029ZM266.106 320.959L267.822 320.569L266.75 315.856L268.292 315.506L273.028 319.385L275.239 318.882L269.356 314.132L272.641 307.726L270.431 308.229L267.521 313.999L266.387 314.257L265.282 309.399L263.566 309.789L266.106 320.959ZM277.897 315.617L275.933 306.978L274.217 307.368L276.756 318.537L278.763 318.081L282.151 308.225L284.115 316.864L285.831 316.474L283.292 305.305L281.314 305.754L277.897 315.617Z" fill="black"/>
</svg>
