<svg width="422" height="428" viewBox="0 0 422 428" fill="none" xmlns="http://www.w3.org/2000/svg">
<path d="M230.772 262.77L230.742 262.878L230.735 262.989L223.167 401.308C217.552 418.801 195.135 423.071 183.954 408.774L15.8151 193.777C8.11968 183.937 9.85066 170.032 19.7499 162.29L206.56 16.1949C216.459 8.45317 230.372 10.1244 238.067 19.9644L406.206 234.962C417.391 249.264 407.406 270.312 389.518 271.221L253.443 245.23L253.334 245.209L253.222 245.213C242.647 245.566 233.663 252.592 230.772 262.77Z" fill="white" stroke="black" stroke-width="2"/>
<path d="M131.556 107.075L132.939 105.987L130.671 103.103C133.11 101.186 133.295 98.0425 131.101 95.252C128.888 92.4381 125.79 91.8762 123.352 93.7937L121.084 90.9094L119.7 91.9972L121.968 94.8814C119.529 96.7989 119.345 99.942 121.557 102.756C123.751 105.546 126.849 106.108 129.288 104.191L131.556 107.075ZM129.694 101.86L124.329 95.0365C126.181 93.5799 128.298 94.5342 129.717 96.3398C131.137 98.1454 131.547 100.404 129.694 101.86ZM128.311 102.948C126.458 104.405 124.36 103.474 122.941 101.668C121.521 99.8625 121.093 97.5808 122.945 96.1243L128.311 102.948ZM133.258 88.0917C134.674 86.9972 136.527 87.6278 137.769 88.8332L134.427 91.4605L135.441 92.7502L138.794 90.1137C139.726 91.6007 139.947 93.6664 138.531 94.7982C137.467 95.6161 135.763 95.476 134.961 94.4559L133.601 95.5253C135.011 97.3192 137.576 97.6366 139.545 96.0879C142.007 94.152 141.746 90.9714 139.87 88.5854L139.611 88.2571C137.735 85.8711 134.706 84.8661 132.244 86.8019C130.486 88.1847 129.978 90.9175 131.204 92.4769L132.564 91.4075C131.831 90.4754 132.33 88.8409 133.258 88.0917ZM144.868 88.3358L139.392 81.3713L138.009 82.4591L145.089 91.4637L146.707 90.1916L145.546 79.8347L151.022 86.7991L152.405 85.7113L145.325 76.7068L143.731 77.9605L144.868 88.3358ZM140.456 75.678C140.936 76.2877 141.031 77.0851 140.211 77.7304C139.39 78.3757 138.661 78.0761 138.182 77.4664L136.892 78.4804C137.887 79.7467 139.526 79.9003 141.003 78.7388C142.504 77.5588 142.741 75.9302 141.746 74.664L140.456 75.678ZM154.658 83.9396L158.903 80.6025C160.732 79.1644 161.023 77.2661 159.935 75.8826C158.824 74.4698 157.152 74.5512 156.046 75.1836C156.894 74.1751 157.168 73.0395 156.306 71.9433C155.177 70.507 153.195 70.5194 151.26 72.0404L147.579 74.9351L154.658 83.9396ZM154.976 81.6409L152.8 78.8739L155.732 76.5692C156.681 75.8225 157.703 75.9395 158.436 76.8716C159.053 77.6571 158.857 78.5896 157.907 79.3363L154.976 81.6409ZM151.86 77.6779L149.887 75.1688L152.256 73.3067C153.364 72.4356 154.402 72.3686 154.997 73.1249C155.628 73.928 155.336 74.9446 154.228 75.8158L151.86 77.6779ZM167.453 74.1833C169.892 72.2658 170.077 69.1227 167.883 66.3323C165.67 63.5183 162.572 62.9564 160.134 64.8739C157.695 66.7913 157.51 69.9344 159.722 72.7484C161.916 75.5388 165.014 76.1007 167.453 74.1833ZM166.476 72.9405C164.624 74.397 162.526 73.4662 161.106 71.6606C159.686 69.855 159.258 67.5732 161.111 66.1167C162.963 64.6602 165.08 65.6144 166.499 67.42C167.919 69.2256 168.329 71.4839 166.476 72.9405ZM175.872 72.7245L177.256 71.6367L173.513 66.8765L173.63 66.7843C174.322 67.0371 175.757 67.6548 177.492 66.2905C179.743 64.5205 179.894 61.4796 177.645 58.6188C175.414 55.7814 172.423 55.2111 170.149 56.9995C168.39 58.3823 168.699 59.885 168.763 60.5937L168.599 60.7227L167.474 59.2923L166.137 60.3432L175.872 72.7245ZM171.037 63.7762C169.452 61.7595 169.273 59.6988 170.962 58.3714C172.721 56.9886 174.75 57.7837 176.243 59.6831C177.755 61.606 178.062 63.8308 176.327 65.1951C174.662 66.5042 172.641 65.8163 171.037 63.7762ZM182.776 58.5311L177.3 51.5666L175.917 52.6544L182.996 61.6589L184.614 60.3868L183.453 50.0299L188.929 56.9944L190.313 55.9066L183.233 46.902L181.638 48.1557L182.776 58.5311ZM185.275 47.3834L188.253 45.0418L194.319 52.7567L195.702 51.6689L189.636 43.9541L192.591 41.631L191.577 40.3413L184.261 46.0936L185.275 47.3834ZM203.732 45.6588C205.726 44.0916 206.08 41.8398 205.061 40.0608L203.677 41.1486C204.194 42.3363 203.834 43.5678 202.755 44.4159C201.114 45.7065 198.989 45.1761 197.348 43.0891C195.744 41.049 195.772 38.8643 197.39 37.5921C198.609 36.6334 199.926 36.8123 200.783 37.467L202.166 36.3793C200.604 34.8753 198.289 34.8744 196.39 36.3678C193.951 38.2852 193.845 41.4802 196.002 44.2238C198.122 46.9205 201.2 47.65 203.732 45.6588Z" fill="black"/>
</svg>
