<svg width="314" height="316" viewBox="0 0 314 316" fill="none" xmlns="http://www.w3.org/2000/svg">
<path fill-rule="evenodd" clip-rule="evenodd" d="M269.361 158.907C269.361 221.025 219.004 271.382 156.886 271.382C94.768 271.382 44.4113 221.025 44.4113 158.907C44.4113 96.789 94.768 46.4323 156.886 46.4323C219.004 46.4323 269.361 96.789 269.361 158.907ZM250.979 283.204C224.83 303.03 192.232 314.793 156.886 314.793C70.7926 314.793 1 245.001 1 158.907C1 72.8136 70.7926 3.021 156.886 3.021C242.98 3.021 312.772 72.8136 312.772 158.907C312.772 194 301.176 226.385 281.607 252.439L304.934 275.766C313.41 284.243 313.41 297.986 304.934 306.463C296.457 314.939 282.714 314.939 274.237 306.463L250.979 283.204Z" fill="white"/>
<path d="M250.979 283.204L251.686 282.497L251.069 281.881L250.375 282.407L250.979 283.204ZM281.607 252.439L280.807 251.838L280.286 252.532L280.899 253.146L281.607 252.439ZM304.934 275.766L305.641 275.059H305.641L304.934 275.766ZM304.934 306.463L305.641 307.17L305.641 307.17L304.934 306.463ZM274.237 306.463L273.53 307.17V307.17L274.237 306.463ZM156.886 272.382C219.557 272.382 270.361 221.578 270.361 158.907H268.361C268.361 220.473 218.452 270.382 156.886 270.382V272.382ZM43.4113 158.907C43.4113 221.578 94.2157 272.382 156.886 272.382V270.382C95.3203 270.382 45.4113 220.473 45.4113 158.907H43.4113ZM156.886 45.4323C94.2157 45.4323 43.4113 96.2367 43.4113 158.907H45.4113C45.4113 97.3413 95.3203 47.4323 156.886 47.4323V45.4323ZM270.361 158.907C270.361 96.2367 219.557 45.4323 156.886 45.4323V47.4323C218.452 47.4323 268.361 97.3413 268.361 158.907H270.361ZM156.886 315.793C192.457 315.793 225.266 303.954 251.583 284.001L250.375 282.407C224.393 302.106 192.006 313.793 156.886 313.793V315.793ZM0 158.907C0 245.553 70.2403 315.793 156.886 315.793V313.793C71.3449 313.793 2 244.448 2 158.907H0ZM156.886 2.021C70.2403 2.021 0 72.2613 0 158.907H2C2 73.3659 71.3449 4.021 156.886 4.021V2.021ZM313.772 158.907C313.772 72.2613 243.532 2.021 156.886 2.021V4.021C242.427 4.021 311.772 73.3659 311.772 158.907H313.772ZM282.406 253.039C302.101 226.819 313.772 194.224 313.772 158.907H311.772C311.772 193.776 300.251 225.952 280.807 251.838L282.406 253.039ZM280.899 253.146L304.227 276.473L305.641 275.059L282.314 251.732L280.899 253.146ZM304.227 276.473C312.313 284.559 312.313 297.669 304.227 305.756L305.641 307.17C314.508 298.303 314.508 283.926 305.641 275.059L304.227 276.473ZM304.227 305.756C296.141 313.842 283.031 313.842 274.944 305.756L273.53 307.17C282.397 316.037 296.774 316.037 305.641 307.17L304.227 305.756ZM274.944 305.756L251.686 282.497L250.272 283.911L273.53 307.17L274.944 305.756Z" fill="black"/>
<path d="M84.5888 43.4696L86.133 42.6252L81.4245 34.0146L86.2402 31.3813L90.9487 39.9919L92.4928 39.1475L86.9972 29.0974L79.0932 33.4195L84.5888 43.4696Z" fill="black"/>
<path d="M98.9457 36.3719C101.775 35.0997 102.713 32.0942 101.258 28.8567C99.7899 25.5919 96.9191 24.2988 94.0896 25.571C91.2602 26.8431 90.3221 29.8486 91.7899 33.1134C93.2455 36.3509 96.1163 37.644 98.9457 36.3719ZM98.2974 34.9299C96.1481 35.8963 94.3369 34.4866 93.3951 32.3917C92.4532 30.2968 92.5886 27.9792 94.7379 27.0129C96.8872 26.0466 98.7107 27.4835 99.6525 29.5783C100.594 31.6732 100.447 33.9636 98.2974 34.9299Z" fill="black"/>
<path d="M104.903 30.7384L101.884 22.4091L100.23 23.0088L104.133 33.7779L106.068 33.0766L108.209 22.8772L111.228 31.2064L112.883 30.6067L108.98 19.8376L107.072 20.5288L104.903 30.7384Z" fill="black"/>
<path d="M119.575 28.8539C122.017 28.1722 123.209 26.229 122.951 24.1951L121.256 24.6683C121.276 25.9632 120.471 26.9622 119.15 27.3312C117.138 27.8926 115.38 26.5871 114.667 24.03C113.969 21.5304 114.833 19.5238 116.816 18.9704C118.31 18.5533 119.457 19.2241 119.996 20.1575L121.691 19.6843C120.827 17.6959 118.689 16.806 116.362 17.4557C113.374 18.2898 112.049 21.1991 112.987 24.5607C113.91 27.8648 116.472 29.7201 119.575 28.8539Z" fill="black"/>
<path d="M126.221 26.8528L127.946 26.5032L126.986 21.7671L128.535 21.4531L133.179 25.4428L135.401 24.9926L129.632 20.1048L133.067 13.778L130.845 14.2283L127.8 19.9281L126.66 20.1592L125.671 15.2769L123.946 15.6264L126.221 26.8528Z" fill="black"/>
<path d="M139.352 24.7369C142.427 24.3317 144.19 21.7226 143.726 18.2033C143.258 14.6544 140.88 12.5908 137.805 12.996C134.729 13.4013 132.967 16.0104 133.434 19.5592C133.898 23.0785 136.276 25.1421 139.352 24.7369ZM139.145 23.1695C136.809 23.4773 135.479 21.6065 135.179 19.3293C134.879 17.0521 135.675 14.8713 138.011 14.5634C140.347 14.2556 141.681 16.156 141.981 18.4332C142.281 20.7103 141.481 22.8617 139.145 23.1695Z" fill="black"/>
<path d="M146.999 23.5875L152.39 23.296C154.713 23.1703 156.042 21.784 155.947 20.0267C155.85 18.2321 154.435 17.3377 153.167 17.2196C154.441 16.8819 155.317 16.11 155.242 14.7175C155.143 12.8931 153.514 11.7639 151.057 11.8968L146.38 12.1496L146.999 23.5875ZM148.58 21.8888L148.39 18.3741L152.113 18.1728C153.319 18.1075 154.088 18.7904 154.152 19.9744C154.206 20.9722 153.509 21.6223 152.303 21.6875L148.58 21.8888ZM148.308 16.855L148.135 13.6679L151.144 13.5052C152.551 13.4291 153.439 13.9711 153.491 14.9317C153.546 15.9519 152.723 16.6162 151.316 16.6923L148.308 16.855Z" fill="black"/>
<path d="M159.909 20.4984L160.114 11.6414L158.355 11.6007L158.089 23.0521L160.147 23.0998L165.839 14.3699L165.634 23.2269L167.394 23.2676L167.659 11.8162L165.631 11.7692L159.909 20.4984Z" fill="black"/>
<path d="M169.197 23.3737L170.949 23.5363L171.396 18.7246L172.97 18.8707L176.266 24.0298L178.523 24.2393L174.409 17.8958L179.523 12.8283L177.265 12.6188L172.706 17.1985L171.548 17.091L172.008 12.1308L170.256 11.9682L169.197 23.3737Z" fill="black"/>
</svg>
