<svg width="42" height="27" viewBox="0 0 42 27" fill="none" xmlns="http://www.w3.org/2000/svg">
<path d="M41.7071 6.79289C42.0976 7.18342 42.0976 7.81658 41.7071 8.20711L35.3431 14.5711C34.9526 14.9616 34.3195 14.9616 33.9289 14.5711C33.5384 14.1805 33.5384 13.5474 33.9289 13.1569L39.5858 7.5L33.9289 1.84315C33.5384 1.45262 33.5384 0.819457 33.9289 0.428932C34.3195 0.0384079 34.9526 0.038408 35.3431 0.428932L41.7071 6.79289ZM41 8.5L1 8.5L1 6.5L41 6.5L41 8.5Z" fill="black"/>
<path d="M0.292893 18.2929C-0.097631 18.6834 -0.0976311 19.3166 0.292893 19.7071L6.65685 26.0711C7.04738 26.4616 7.68054 26.4616 8.07107 26.0711C8.46159 25.6805 8.46159 25.0474 8.07107 24.6569L2.41421 19L8.07107 13.3431C8.46159 12.9526 8.46159 12.3195 8.07107 11.9289C7.68054 11.5384 7.04738 11.5384 6.65685 11.9289L0.292893 18.2929ZM1 20L41 20L41 18L1 18L1 20Z" fill="black"/>
</svg>
