<svg width="63" height="31" viewBox="0 0 63 31" fill="none" xmlns="http://www.w3.org/2000/svg">
<path d="M0.993652 15.5C0.993652 7.21573 7.70938 0.5 15.9937 0.5H48.0073C56.2916 0.5 63.0073 7.21573 63.0073 15.5V15.5C63.0073 23.7843 56.2916 30.5 48.0073 30.5H15.9937C7.70939 30.5 0.993652 23.7843 0.993652 15.5V15.5Z" fill="#E2B8E6"/>
<path d="M19.8812 15.3247C19.8812 16.0998 19.2524 16.7282 18.4767 16.7282C17.7011 16.7282 17.0723 16.0998 17.0723 15.3247C17.0723 14.5496 17.7011 13.9211 18.4767 13.9211C19.2524 13.9211 19.8812 14.5496 19.8812 15.3247" fill="#281915"/>
<path d="M25.7406 15.3247C25.7406 16.0998 25.1118 16.7282 24.3361 16.7282C23.5605 16.7282 22.9316 16.0998 22.9316 15.3247C22.9316 14.5496 23.5605 13.9211 24.3361 13.9211C25.1118 13.9211 25.7406 14.5496 25.7406 15.3247" fill="#281915"/>
<path d="M24.5555 19.0088C24.1824 18.7676 23.6996 18.8773 23.4582 19.25C23.0633 19.8422 22.2951 20.215 21.4174 20.215C20.5397 20.215 19.7715 19.8422 19.3766 19.25C19.1352 18.8773 18.6524 18.7676 18.2793 19.0088C17.9063 19.25 17.7966 19.7325 18.0379 20.1053C18.7182 21.1579 20.0129 21.7939 21.3955 21.7939C22.7782 21.7939 24.0947 21.136 24.7531 20.1053C25.0164 19.7324 24.9067 19.25 24.5555 19.0088H24.5555Z" fill="#281915"/>
<path d="M30.1076 12.7807C30.1076 12.1228 30.0857 11.3772 30.0199 10.5219C29.6686 6.24562 25.96 5.5 21.4174 5.5C16.8748 5.5 13.1661 6.24558 12.8149 10.5219C12.7491 11.3772 12.7272 12.1228 12.7272 12.7807C11.7177 13.2413 10.9937 14.3158 10.9937 15.5658C10.9937 17.079 12.047 18.351 13.4077 18.5702V20.4123C13.4077 23.2193 15.6899 25.5 18.5209 25.5H24.3363C27.1453 25.5 29.4495 23.2194 29.4495 20.4123L29.4494 18.5702C30.8099 18.3508 31.8634 17.1009 31.8634 15.5658C31.8414 14.3159 31.1172 13.2413 30.1078 12.7807H30.1076ZM29.0103 17.0132C28.9006 17.0132 28.8566 17.0132 28.8348 16.9913C28.5933 16.9255 28.352 16.9913 28.1545 17.1449C27.957 17.2985 27.8473 17.5177 27.8473 17.7808V20.4123C27.8473 22.3422 26.2672 23.9212 24.3141 23.9212L18.5206 23.921C16.5675 23.921 14.9875 22.3421 14.9875 20.4122V17.7806C14.9875 17.5394 14.8777 17.2982 14.6802 17.1447C14.4828 16.9912 14.2414 16.9474 14 16.9912C13.9781 16.9912 13.9123 17.013 13.8244 17.013C13.1441 17.013 12.5735 16.3551 12.5735 15.5656C12.5735 14.9516 12.9246 14.4252 13.4074 14.2279V14.3815C13.4074 14.82 13.7586 15.171 14.1974 15.171C14.6363 15.171 14.9875 14.82 14.9875 14.3815V12.7806C14.9875 12.1447 15.163 11.5526 15.4702 11.0483C16.8966 11.5965 19.0253 11.9693 21.4174 11.9693C23.8093 11.9693 25.938 11.6184 27.3645 11.0483C27.6498 11.5526 27.8473 12.1447 27.8473 12.7806V14.3815C27.8473 14.82 28.1984 15.171 28.6373 15.171C29.0761 15.171 29.4273 14.82 29.4273 14.3815V14.2279C29.9101 14.4252 30.2613 14.9516 30.2613 15.5656C30.2611 16.3771 29.6906 17.0132 29.0103 17.0132L29.0103 17.0132Z" fill="#281915"/>
<path fill-rule="evenodd" clip-rule="evenodd" d="M44.7348 18.1573C44.7917 18.2224 44.874 18.2598 44.9605 18.2598C45.0471 18.2598 45.1294 18.2224 45.1863 18.1573L51.5963 10.8316C51.8891 10.497 52.3978 10.463 52.7325 10.7559C53.0672 11.0487 53.1011 11.5574 52.8083 11.8921L45.5665 20.1684C45.4136 20.3431 45.1927 20.4434 44.9605 20.4434C44.7283 20.4434 44.5075 20.3431 44.3546 20.1684L37.1128 11.8921C36.82 11.5574 36.8539 11.0487 37.1886 10.7559C37.5232 10.463 38.0319 10.497 38.3248 10.8316L44.7348 18.1573Z" fill="#281915"/>
</svg>
