<svg width="26" height="27" viewBox="0 0 26 27" fill="none" xmlns="http://www.w3.org/2000/svg">
<circle cx="12.75" cy="13.5" r="12.75" fill="#E2B8E6"/>
<path d="M5.82128 15.0836C5.49734 15.0109 5.25 14.6239 5.25 14.1573C5.25 13.6907 5.49735 13.3037 5.82128 13.231L10.2576 9.34433C10.6473 9.0028 11.2395 9.0424 11.5806 9.43253C11.9215 9.82266 11.8819 10.4156 11.4923 10.7571L8.68251 13.2186H19.5682C19.9447 13.2186 20.25 13.6389 20.25 14.1573C20.25 14.6756 19.9447 15.0959 19.5682 15.0959H8.68251L11.4923 17.5577C11.8819 17.899 11.9215 18.4919 11.5806 18.882C11.2395 19.2722 10.6473 19.3118 10.2576 18.9704L5.82128 15.0836Z" fill="#281915"/>
</svg>
