<svg width="21" height="20" viewBox="0 0 21 20" fill="none" xmlns="http://www.w3.org/2000/svg">
<path d="M10.4213 15.3882L15.7419 18.1854L14.7256 12.2608L19.0303 8.06505L13.0815 7.20067L10.4214 1.81031L7.76121 7.20067L1.81238 8.06505L6.11707 12.2608L5.10083 18.1854L10.4213 15.3882ZM5.94298 19.788C4.61509 20.4863 3.06276 19.3583 3.3163 17.8796L4.17154 12.893L0.548822 9.3615C-0.525856 8.3143 0.0670546 6.48953 1.55213 6.27357L6.55859 5.54618L8.7979 1.00913C9.46183 -0.336377 11.3807 -0.336377 12.0446 1.00913L14.284 5.54618L19.2904 6.27357C20.7755 6.48952 21.3684 8.3143 20.2937 9.3615L16.671 12.893L17.5263 17.8796C17.7798 19.3583 16.2275 20.4864 14.8996 19.788L10.4213 17.4337L5.94298 19.788Z" fill="#281915"/>
</svg>
