<svg width="24" height="20" viewBox="0 0 24 20" fill="none" xmlns="http://www.w3.org/2000/svg">
<path d="M12.0974 19.0909L11.7121 19.9143C11.9563 20.0286 12.2386 20.0286 12.4827 19.9143L12.0974 19.0909ZM21.9653 2.49755C18.3772 -2.31651 11.1885 0.449057 11.1885 5.54253H13.0067C13.0067 2.24555 17.9374 0.135981 20.5073 3.58408L21.9653 2.49755ZM13.0067 5.54253C13.0067 0.448947 5.81769 -2.31666 2.22922 2.49746L20.4986 2.75C23.069 -0.698447 11.1885 2.24566 11.1885 5.54253H13.0067ZM2.22922 2.49746C0.370951 4.99109 0.438623 8.32272 2.08384 11.4763C3.73004 14.6318 6.98108 17.7007 11.7121 19.9143L21.2363 11.1875C22.1106 7.5 23.3882 8.27002 21.9653 5.54253C20.5414 2.81329 23.3197 4.39671 20.4986 2.75L2.22922 2.49746ZM12.4827 19.9143C17.2136 17.7007 20.4645 14.6318 22.1106 11.4763C23.7558 8.32266 23.8235 4.99118 21.9653 2.49755L20.5073 3.58408C21.8318 5.36136 21.9224 7.90604 20.4986 10.6353C19.0757 13.3628 16.1659 16.1835 11.7121 18.2675L12.4827 19.9143Z" fill="#FC4A27"/>
</svg>
