<svg width="24" height="20" viewBox="0 0 24 20" fill="none" xmlns="http://www.w3.org/2000/svg">
<path d="M21.2363 3.04079L21.9653 2.49755L21.9652 2.4975L21.2363 3.04079ZM11.1885 5.54253C11.1885 6.04464 11.5955 6.45169 12.0976 6.45169C12.5997 6.45169 13.0067 6.04464 13.0067 5.54253H11.1885ZM2.95813 3.04079L2.22922 2.49746L2.22916 2.49755L2.95813 3.04079ZM12.0974 19.0909L11.7121 19.9143C11.9563 20.0286 12.2386 20.0286 12.4827 19.9143L12.0974 19.0909ZM21.9652 2.4975C18.3772 -2.31657 11.1885 0.449057 11.1885 5.54253H13.0067C13.0067 2.24555 17.9374 0.135981 20.5073 3.58408L21.9652 2.4975ZM13.0067 5.54253C13.0067 0.448948 5.81769 -2.31666 2.22922 2.49746L3.68703 3.58412C6.25751 0.135671 11.1885 2.24566 11.1885 5.54253H13.0067ZM2.22916 2.49755C0.370885 4.99118 0.438623 8.32272 2.08384 11.4763C3.73004 14.6318 6.98108 17.7007 11.7121 19.9143L12.4827 18.2675C8.02875 16.1835 5.11878 13.3628 3.6959 10.6353C2.27204 7.90604 2.36265 5.36131 3.6871 3.58403L2.22916 2.49755ZM12.4827 19.9143C17.2136 17.7007 20.4645 14.6318 22.1106 11.4763C23.7558 8.32266 23.8235 4.99118 21.9653 2.49755L20.5073 3.58403C21.8318 5.36131 21.9224 7.90604 20.4986 10.6353C19.0757 13.3628 16.1659 16.1835 11.7121 18.2675L12.4827 19.9143Z" fill="#281915"/>
</svg>
