<svg width="96" height="120" viewBox="0 0 96 120" fill="none" xmlns="http://www.w3.org/2000/svg">
<path fill-rule="evenodd" clip-rule="evenodd" d="M77.3506 7.47356C72.4792 3.89075 66.5978 1.95977 60.5597 1.96078H26.4817L2.40122 118.039H30.38L33.3045 103.932L34.5998 105.55C38.9202 110.946 44.8016 114.862 51.4327 116.759C58.0638 118.656 65.1176 118.44 71.621 116.14C78.1243 113.84 83.7567 109.57 87.7409 103.919C91.7252 98.2681 93.865 91.5148 93.8651 84.5908C93.8668 78.6731 92.3045 72.8608 89.3378 67.7478C86.3711 62.6348 82.1063 58.404 76.9789 55.4876L75.6357 54.7237L76.8987 53.8324C81.839 50.3461 85.5446 45.3697 87.478 39.6253C89.4115 33.8809 89.472 27.6673 87.651 21.886C85.8299 16.1047 82.222 11.0564 77.3506 7.47356ZM95.8176 84.5911C95.8175 91.9208 93.5522 99.07 89.3345 105.052C85.1167 111.034 79.1541 115.555 72.2695 117.989C65.3849 120.424 57.9176 120.653 50.8978 118.645C44.5272 116.823 38.8101 113.239 34.3887 108.323L31.9679 120H0L24.8941 3.07963e-07L60.5594 4.0146e-07C60.5594 4.0146e-07 60.5593 4.0146e-07 60.5594 4.0146e-07C67.0124 -0.00105088 73.2982 2.06264 78.5043 5.89166C83.7105 9.72072 87.5664 15.116 89.5126 21.2946C91.4588 27.4733 91.3941 34.1139 89.3278 40.2531C87.421 45.9183 83.9015 50.8845 79.2205 54.5455C84.0797 57.5883 88.1343 61.7789 91.0248 66.7606C94.1655 72.1734 95.8193 78.3265 95.8176 84.5911Z" fill="#281915"/>
<path fill-rule="evenodd" clip-rule="evenodd" d="M32.1502 30.4912C32.1457 35.0695 33.2403 39.5814 35.3414 43.6445C37.4424 47.7077 40.488 51.2023 44.2198 53.8321L45.4844 54.7233L44.1401 55.4877C39.0121 58.4037 34.7468 62.6342 31.7797 67.7473C28.8126 72.8603 27.2501 78.6726 27.2518 84.5905L25.2993 84.5911C25.2975 78.3261 26.9516 72.173 30.0927 66.76C32.9834 61.7785 37.0382 57.5883 41.8976 54.5459C38.4541 51.8558 35.6246 48.4468 33.6086 44.5482C31.3628 40.2053 30.1928 35.3828 30.1976 30.4893L32.1502 30.4912Z" fill="#281915"/>
</svg>
