<svg width="52" height="64" viewBox="0 0 52 64" fill="none" xmlns="http://www.w3.org/2000/svg">
<path d="M50.6066 44.9471C50.6065 48.7339 49.4313 52.4275 47.243 55.5181C45.0547 58.6087 41.9613 60.944 38.3894 62.2019C34.8175 63.4597 30.9434 63.5781 27.3014 62.5407C23.6594 61.5033 20.4291 59.3612 18.0562 56.41L16.6341 63.2407H0.640625L13.7068 0.520996H32.3141C35.6467 0.520437 38.8928 1.58171 41.5815 3.55085C44.2701 5.51999 46.2614 8.29455 47.2665 11.472C48.2716 14.6494 48.2382 18.0645 47.1711 21.2216C46.104 24.3788 44.0587 27.1138 41.332 29.03C44.1482 30.625 46.4906 32.9389 48.12 35.7353C49.7494 38.5318 50.6075 41.7106 50.6066 44.9471Z" fill="#281915"/>
<path fill-rule="evenodd" clip-rule="evenodd" d="M41.2737 3.97105C38.6743 2.06733 35.5361 1.04132 32.3142 1.04186H14.1304L1.28127 62.7197H16.2105L17.771 55.2239L18.4622 56.0835C20.7675 58.9506 23.9058 61.0317 27.4441 62.0396C30.9824 63.0475 34.7462 62.9325 38.2164 61.7104C41.6865 60.4884 44.6919 58.2196 46.8179 55.217C48.9438 52.2144 50.0856 48.626 50.0856 44.947C50.0866 41.8027 49.2529 38.7143 47.6699 35.9975C46.0869 33.2807 43.8113 31.0328 41.0753 29.4832L40.3586 29.0772L41.0325 28.6037C43.6686 26.7512 45.6459 24.107 46.6776 21.0548C47.7092 18.0025 47.7416 14.7009 46.7699 11.629C45.7982 8.55715 43.873 5.87477 41.2737 3.97105ZM51.1275 44.9472C51.1274 48.8418 49.9187 52.6405 47.6682 55.819C45.4176 58.9976 42.236 61.3995 38.5624 62.6931C34.8889 63.9868 30.9044 64.1086 27.1587 63.0416C23.7593 62.0733 20.7088 60.1693 18.3495 57.5568L17.0578 63.7616H0L13.2833 1.63635e-07L32.314 2.13314e-07C32.314 2.13314e-07 32.314 2.13314e-07 32.314 2.13314e-07C35.7573 -0.000558383 39.1113 1.09598 41.8893 3.13051C44.6672 5.16507 46.7247 8.03181 47.7632 11.3148C48.8017 14.5978 48.7671 18.1263 47.6646 21.3884C46.6472 24.3985 44.7691 27.0373 42.2714 28.9825C44.8643 30.5993 47.0278 32.826 48.5701 35.473C50.2459 38.3491 51.1284 41.6185 51.1275 44.9472Z" fill="#281915"/>
<path fill-rule="evenodd" clip-rule="evenodd" d="M17.1556 16.2015C17.1532 18.6341 17.7373 21.0315 18.8584 23.1905C19.9795 25.3494 21.6045 27.2062 23.5958 28.6036L24.2706 29.0771L23.5533 29.4833C20.817 31.0327 18.5411 33.2806 16.9579 35.9974C15.3747 38.7142 14.5409 41.8025 14.5419 44.9469L13.5 44.9473C13.499 41.6184 14.3817 38.3489 16.0577 35.4728C17.6002 32.8259 19.7638 30.5994 22.3567 28.9829C20.5193 27.5534 19.0095 25.7421 17.9337 23.6706C16.7355 21.363 16.1111 18.8006 16.1137 16.2004L17.1556 16.2015Z" fill="white"/>
</svg>
