<svg width="20" height="21" viewBox="0 0 20 21" fill="none" xmlns="http://www.w3.org/2000/svg">
<path fill-rule="evenodd" clip-rule="evenodd" d="M14.4041 13.5743L14.2973 13.7133L19.3262 18.7483C19.6898 19.1124 19.6834 19.6991 19.3536 20.0294C19.1743 20.2089 18.9249 20.2999 18.7004 20.2999C18.4511 20.2999 18.2283 20.2107 18.0473 20.0294L12.9896 15.0219L12.851 15.1292C11.4359 16.2252 9.7259 16.7609 8.0137 16.7609C5.9549 16.7609 3.92386 15.985 2.34602 14.4053C-0.782006 11.2735 -0.782006 6.18735 2.34602 3.05555C3.92386 1.47581 5.9549 0.699951 8.0137 0.699951C10.0725 0.699951 12.1042 1.47647 13.682 3.05621C16.5691 5.91999 16.8097 10.4433 14.4041 13.5743ZM3.65231 13.1241L3.65402 13.1258C4.84063 14.2856 6.36989 14.9386 8.0411 14.9386C9.68093 14.9386 11.2682 14.3157 12.4316 13.1224C13.5899 11.9344 14.2421 10.4034 14.2421 8.7304C14.2421 7.06088 13.6196 5.49946 12.4282 4.33497C11.2416 3.17523 9.71232 2.52217 8.0411 2.52217C6.37126 2.52217 4.81326 3.17432 3.65231 4.33667L3.65149 4.3375C1.24589 6.77433 1.24471 10.7136 3.65231 13.1241Z" fill="#281915"/>
</svg>
