<svg width="44" height="44" viewBox="0 0 44 44" fill="none" xmlns="http://www.w3.org/2000/svg">
<circle cx="22" cy="22" r="22" fill="#E2B8E6"/>
<path fill-rule="evenodd" clip-rule="evenodd" d="M31.8492 22.117C32.3572 21.6725 32.4087 20.9004 31.9642 20.3924L22.1864 9.21777C21.9543 8.95253 21.619 8.80039 21.2666 8.80039C20.9142 8.80039 20.5789 8.95253 20.3468 9.21777L10.569 20.3924C10.1245 20.9004 10.176 21.6725 10.684 22.117C11.192 22.5615 11.9642 22.51 12.4087 22.002L21.2666 11.8787L30.1246 22.002C30.569 22.51 31.3412 22.5615 31.8492 22.117Z" fill="#281915"/>
<path fill-rule="evenodd" clip-rule="evenodd" d="M21.2788 34.6707C21.9538 34.6707 22.501 34.1234 22.501 33.4484L22.501 10.9104C22.501 10.2354 21.9538 9.68815 21.2788 9.68815C20.6037 9.68815 20.0565 10.2354 20.0565 10.9104L20.0565 33.4484C20.0565 34.1234 20.6037 34.6707 21.2788 34.6707Z" fill="#281915"/>
</svg>
