<svg width="62" height="31" viewBox="0 0 62 31" fill="none" xmlns="http://www.w3.org/2000/svg">
<path d="M0.000488281 15.5C0.000488281 7.21573 6.71622 0.5 15.0005 0.5H47.0005C55.2848 0.5 62.0005 7.21573 62.0005 15.5V15.5C62.0005 23.7843 55.2848 30.5 47.0005 30.5H15.0005C6.71622 30.5 0.000488281 23.7843 0.000488281 15.5V15.5Z" fill="#E2B8E6"/>
<path d="M17.1185 15.608V15.916C17.4638 16 17.7392 16.1867 17.9445 16.476C18.1592 16.7653 18.2665 17.1293 18.2665 17.568C18.2665 18.856 17.4358 19.5 15.7745 19.5H12.1485V12.444H15.6485C16.3578 12.444 16.9038 12.6027 17.2865 12.92C17.6785 13.228 17.8745 13.662 17.8745 14.222C17.8745 14.5487 17.7998 14.8333 17.6505 15.076C17.5105 15.3187 17.3332 15.496 17.1185 15.608ZM13.3245 18.492H15.7045C16.6192 18.492 17.0765 18.142 17.0765 17.442C17.0765 16.7327 16.6192 16.378 15.7045 16.378H13.3245V18.492ZM13.3245 13.452V15.37H15.5365C15.9378 15.37 16.2272 15.2813 16.4045 15.104C16.5912 14.9267 16.6845 14.698 16.6845 14.418C16.6845 13.774 16.3018 13.452 15.5365 13.452H13.3245ZM20.3292 13.312C20.9545 12.612 21.8039 12.262 22.8772 12.262C23.9505 12.262 24.7952 12.612 25.4112 13.312C26.0365 14.012 26.3492 14.8987 26.3492 15.972C26.3492 17.0453 26.0365 17.932 25.4112 18.632C24.7952 19.332 23.9505 19.682 22.8772 19.682C21.8039 19.682 20.9545 19.332 20.3292 18.632C19.7132 17.932 19.4052 17.0453 19.4052 15.972C19.4052 14.8987 19.7132 14.012 20.3292 13.312ZM21.1832 17.876C21.5752 18.3893 22.1399 18.646 22.8772 18.646C23.6145 18.646 24.1792 18.3893 24.5712 17.876C24.9632 17.3533 25.1592 16.7187 25.1592 15.972C25.1592 15.2253 24.9632 14.5953 24.5712 14.082C24.1792 13.5593 23.6145 13.298 22.8772 13.298C22.1399 13.298 21.5752 13.5593 21.1832 14.082C20.7912 14.5953 20.5952 15.2253 20.5952 15.972C20.5952 16.7187 20.7912 17.3533 21.1832 17.876ZM29.6064 19.5H27.9264V12.444H29.0884V17.904H29.3964L32.4904 12.444H34.2264V19.5H33.0644V14.04H32.7564L29.6064 19.5ZM32.2664 9.364H33.2324C33.2137 10.0173 33.013 10.5213 32.6304 10.876C32.2477 11.2307 31.7204 11.408 31.0484 11.408C30.3857 11.408 29.863 11.2307 29.4804 10.876C29.0977 10.5213 28.897 10.0173 28.8784 9.364H29.8444C29.863 10.1573 30.2644 10.554 31.0484 10.554C31.8137 10.554 32.2197 10.1573 32.2664 9.364ZM35.518 13.48V12.444H41.594V13.48H39.158V19.5H37.968V13.48H35.518ZM44.564 19.5H42.884V12.444H44.046V17.904H44.354L47.448 12.444H49.184V19.5H48.022V14.04H47.714L44.564 19.5Z" fill="#281915"/>
</svg>
